<?xml version="1.0" standalone="no"?>
<!DOCTYPE svg PUBLIC "-//W3C//DTD SVG 20010904//EN"
 "http://www.w3.org/TR/2001/REC-SVG-20010904/DTD/svg10.dtd">
<svg version="1.0" xmlns="http://www.w3.org/2000/svg"
 width="1024.000000pt" height="1024.000000pt" viewBox="0 0 1024.000000 1024.000000"
 preserveAspectRatio="xMidYMid meet">
<metadata>
Created by potrace 1.14, written by Peter Selinger 2001-2017
</metadata>
<g transform="translate(0.000000,1024.000000) scale(0.100000,-0.100000)"
fill="#000000" stroke="none">
<path d="M1116 10229 c-288 -38 -550 -171 -757 -386 -179 -186 -291 -407 -341
-671 -19 -99 -19 -8005 0 -8104 50 -266 163 -486 344 -674 186 -193 405 -313
678 -371 81 -17 258 -18 4080 -18 3822 0 3999 1 4080 18 273 58 492 178 678
371 181 188 294 408 344 674 19 99 19 8005 0 8104 -50 266 -163 486 -344 674
-183 189 -389 304 -668 371 -71 17 -263 18 -4050 19 -2265 1 -4005 -2 -4044
-7z m5966 -879 c328 -42 630 -125 918 -252 457 -202 759 -469 983 -867 181
-324 312 -732 368 -1147 26 -190 31 -581 11 -759 -79 -692 -336 -1288 -781
-1815 -222 -263 -927 -931 -1541 -1461 -1007 -869 -2221 -1773 -2689 -2002
-62 -30 -72 -32 -176 -32 -97 0 -115 3 -155 24 -69 36 -115 76 -148 129 -84
131 -83 271 3 620 31 128 55 235 53 238 -11 10 -392 -139 -698 -273 -107 -47
-366 -164 -575 -261 -820 -377 -1257 -572 -1375 -615 -107 -38 -241 -6 -325
78 -84 84 -116 218 -78 325 43 118 238 554 615 1375 96 209 214 468 261 575
134 305 283 687 273 698 -3 2 -110 -22 -238 -53 -196 -49 -251 -59 -348 -63
-100 -4 -124 -1 -179 18 -109 36 -167 86 -222 190 -21 40 -24 58 -24 155 0
104 2 114 32 176 229 468 1133 1682 2002 2689 530 614 1198 1319 1461 1541
394 333 839 566 1315 689 215 55 362 79 655 104 105 9 453 -5 602 -24z"/>
<path d="M6600 8189 c-529 -59 -989 -413 -1181 -907 -128 -332 -129 -703 -3
-1039 138 -365 462 -689 827 -827 660 -248 1390 6 1753 609 187 313 248 710
163 1066 -169 707 -838 1178 -1559 1098z"/>
</g>
</svg>
