<?xml version="1.0" encoding="UTF-8" standalone="no"?>
<!DOCTYPE svg PUBLIC "-//W3C//DTD SVG 1.1//EN" "http://www.w3.org/Graphics/SVG/1.1/DTD/svg11.dtd">
<svg width="100%" height="100%" viewBox="0 0 156 34" version="1.1" xmlns="http://www.w3.org/2000/svg" xmlns:xlink="http://www.w3.org/1999/xlink" xml:space="preserve" xmlns:serif="http://www.serif.com/" style="fill-rule:evenodd;clip-rule:evenodd;stroke-linejoin:round;stroke-miterlimit:2;">
    <g transform="matrix(1.00412,0,0,1.00076,-0.171428,0.2007)">
        <path d="M6.239,25.507L1.724,25.507L7.589,8.066L13.182,8.066L19.047,25.507L14.532,25.507L10.449,12.46L10.314,12.46L6.239,25.507ZM5.637,18.643L15.075,18.643L15.075,21.845L5.637,21.845L5.637,18.643Z" style="fill:white;fill-rule:nonzero;"/>
        <path d="M29.335,19.861L29.335,12.426L33.477,12.426L33.477,25.507L29.521,25.507L29.521,23.072L29.386,23.072C29.097,23.872 28.605,24.508 27.909,24.979C27.218,25.445 26.384,25.678 25.405,25.678C24.516,25.678 23.736,25.473 23.062,25.064C22.389,24.656 21.865,24.085 21.492,23.353C21.118,22.615 20.929,21.752 20.923,20.764L20.923,12.426L25.074,12.426L25.074,19.946C25.079,20.656 25.266,21.215 25.634,21.624C26.002,22.033 26.503,22.237 27.136,22.237C27.549,22.237 27.92,22.146 28.248,21.964C28.582,21.777 28.845,21.507 29.038,21.155C29.236,20.798 29.335,20.366 29.335,19.861Z" style="fill:white;fill-rule:nonzero;"/>
        <path d="M43.475,12.426L43.475,15.492L35.251,15.492L35.251,12.426L43.475,12.426ZM36.974,9.292L41.124,9.292L41.124,21.394C41.124,21.649 41.164,21.857 41.243,22.016C41.328,22.169 41.449,22.28 41.608,22.348C41.766,22.41 41.956,22.441 42.177,22.441C42.335,22.441 42.502,22.427 42.677,22.399C42.858,22.365 42.994,22.336 43.085,22.314L43.713,25.32C43.515,25.377 43.235,25.448 42.873,25.533C42.516,25.618 42.089,25.672 41.591,25.695C40.618,25.74 39.783,25.626 39.087,25.354C38.397,25.076 37.868,24.644 37.5,24.059C37.138,23.475 36.962,22.739 36.974,21.854L36.974,9.292Z" style="fill:white;fill-rule:nonzero;"/>
        <path d="M51.547,25.754C50.178,25.754 49.001,25.473 48.016,24.911C47.037,24.343 46.282,23.554 45.75,22.544C45.224,21.527 44.961,20.349 44.961,19.009C44.961,17.664 45.224,16.486 45.75,15.475C46.282,14.459 47.037,13.67 48.016,13.108C49.001,12.54 50.178,12.256 51.547,12.256C52.916,12.256 54.091,12.54 55.069,13.108C56.054,13.67 56.809,14.459 57.336,15.475C57.868,16.486 58.134,17.664 58.134,19.009C58.134,20.349 57.868,21.527 57.336,22.544C56.809,23.554 56.054,24.343 55.069,24.911C54.091,25.473 52.916,25.754 51.547,25.754ZM51.573,22.612C52.07,22.612 52.492,22.458 52.837,22.152C53.182,21.845 53.446,21.419 53.627,20.874C53.813,20.329 53.907,19.699 53.907,18.984C53.907,18.257 53.813,17.621 53.627,17.076C53.446,16.531 53.182,16.105 52.837,15.799C52.492,15.492 52.07,15.339 51.573,15.339C51.058,15.339 50.622,15.492 50.265,15.799C49.915,16.105 49.646,16.531 49.459,17.076C49.278,17.621 49.187,18.257 49.187,18.984C49.187,19.699 49.278,20.329 49.459,20.874C49.646,21.419 49.915,21.845 50.265,22.152C50.622,22.458 51.058,22.612 51.573,22.612Z" style="fill:white;fill-rule:nonzero;"/>
        <path d="M60.264,25.507L60.264,12.426L64.211,12.426L64.211,14.828L64.355,14.828C64.627,14.033 65.085,13.406 65.73,12.946C66.375,12.486 67.145,12.256 68.039,12.256C68.944,12.256 69.719,12.489 70.364,12.954C71.009,13.42 71.42,14.044 71.595,14.828L71.731,14.828C71.974,14.05 72.45,13.428 73.157,12.963C73.864,12.492 74.699,12.256 75.661,12.256C76.894,12.256 77.896,12.653 78.665,13.448C79.435,14.237 79.82,15.322 79.82,16.701L79.82,25.507L75.669,25.507L75.669,17.655C75.669,17.002 75.502,16.506 75.168,16.165C74.835,15.819 74.402,15.645 73.87,15.645C73.298,15.645 72.849,15.833 72.52,16.207C72.198,16.577 72.037,17.073 72.037,17.698L72.037,25.507L68.047,25.507L68.047,17.613C68.047,17.005 67.883,16.525 67.555,16.173C67.227,15.821 66.794,15.645 66.256,15.645C65.894,15.645 65.574,15.733 65.297,15.909C65.02,16.08 64.802,16.324 64.644,16.642C64.491,16.96 64.415,17.334 64.415,17.766L64.415,25.507L60.264,25.507Z" style="fill:white;fill-rule:nonzero;"/>
        <path d="M86.075,25.729C85.243,25.729 84.505,25.59 83.86,25.311C83.221,25.028 82.714,24.602 82.341,24.034C81.973,23.461 81.789,22.742 81.789,21.879C81.789,21.153 81.916,20.539 82.171,20.04C82.426,19.54 82.776,19.134 83.223,18.822C83.67,18.51 84.185,18.274 84.768,18.115C85.351,17.95 85.973,17.84 86.635,17.783C87.377,17.715 87.974,17.644 88.426,17.57C88.879,17.491 89.207,17.38 89.411,17.238C89.62,17.09 89.725,16.883 89.725,16.616L89.725,16.574C89.725,16.137 89.575,15.799 89.275,15.56C88.975,15.322 88.571,15.203 88.061,15.203C87.513,15.203 87.071,15.322 86.737,15.56C86.403,15.799 86.191,16.128 86.101,16.548L82.273,16.412C82.386,15.617 82.677,14.907 83.147,14.283C83.622,13.653 84.273,13.159 85.099,12.801C85.931,12.438 86.93,12.256 88.095,12.256C88.927,12.256 89.694,12.355 90.396,12.554C91.097,12.747 91.708,13.031 92.229,13.406C92.749,13.775 93.151,14.229 93.434,14.768C93.723,15.308 93.867,15.924 93.867,16.616L93.867,25.507L89.963,25.507L89.963,23.685L89.861,23.685C89.629,24.128 89.332,24.502 88.97,24.809C88.613,25.116 88.192,25.345 87.705,25.499C87.224,25.652 86.681,25.729 86.075,25.729ZM87.357,23.003C87.804,23.003 88.206,22.913 88.562,22.731C88.924,22.549 89.213,22.299 89.428,21.982C89.643,21.658 89.75,21.283 89.75,20.857L89.75,19.614C89.632,19.676 89.487,19.733 89.318,19.784C89.153,19.835 88.972,19.884 88.774,19.929C88.576,19.975 88.373,20.014 88.163,20.048C87.954,20.082 87.753,20.114 87.561,20.142C87.17,20.204 86.836,20.301 86.559,20.432C86.287,20.562 86.078,20.732 85.931,20.943C85.789,21.147 85.719,21.391 85.719,21.675C85.719,22.106 85.872,22.436 86.177,22.663C86.488,22.89 86.882,23.003 87.357,23.003Z" style="fill:white;fill-rule:nonzero;"/>
        <path d="M103.755,12.426L103.755,15.492L95.531,15.492L95.531,12.426L103.755,12.426ZM97.254,9.292L101.404,9.292L101.404,21.394C101.404,21.649 101.444,21.857 101.523,22.016C101.608,22.169 101.729,22.28 101.888,22.348C102.046,22.41 102.236,22.441 102.457,22.441C102.615,22.441 102.782,22.427 102.957,22.399C103.138,22.365 103.274,22.336 103.365,22.314L103.993,25.32C103.795,25.377 103.515,25.448 103.153,25.533C102.796,25.618 102.369,25.672 101.871,25.695C100.898,25.74 100.063,25.626 99.367,25.354C98.677,25.076 98.148,24.644 97.78,24.059C97.418,23.475 97.242,22.739 97.254,21.854L97.254,9.292Z" style="fill:white;fill-rule:nonzero;"/>
        <path d="M105.877,25.507L105.877,12.426L110.028,12.426L110.028,25.507L105.877,25.507ZM107.957,10.902C107.374,10.902 106.873,10.709 106.454,10.323C106.036,9.931 105.826,9.46 105.826,8.909C105.826,8.364 106.036,7.898 106.454,7.512C106.873,7.121 107.374,6.925 107.957,6.925C108.545,6.925 109.046,7.121 109.459,7.512C109.878,7.898 110.087,8.364 110.087,8.909C110.087,9.46 109.878,9.931 109.459,10.323C109.046,10.709 108.545,10.902 107.957,10.902Z" style="fill:white;fill-rule:nonzero;"/>
        <path d="M124.041,16.42L120.23,16.523C120.19,16.25 120.083,16.009 119.907,15.799C119.732,15.583 119.503,15.415 119.22,15.296C118.943,15.171 118.62,15.109 118.252,15.109C117.771,15.109 117.361,15.205 117.022,15.398C116.688,15.591 116.524,15.853 116.529,16.182C116.524,16.437 116.625,16.659 116.835,16.846C117.05,17.034 117.432,17.184 117.981,17.298L120.493,17.774C121.795,18.024 122.762,18.439 123.396,19.018C124.035,19.597 124.358,20.363 124.363,21.317C124.358,22.214 124.092,22.995 123.566,23.659C123.045,24.324 122.332,24.84 121.427,25.209C120.521,25.573 119.486,25.754 118.32,25.754C116.459,25.754 114.99,25.371 113.915,24.605C112.846,23.832 112.234,22.799 112.082,21.505L116.181,21.402C116.272,21.879 116.507,22.243 116.886,22.493C117.265,22.742 117.749,22.867 118.337,22.867C118.869,22.867 119.302,22.768 119.636,22.569C119.97,22.37 120.139,22.106 120.145,21.777C120.139,21.482 120.009,21.246 119.755,21.07C119.5,20.889 119.101,20.747 118.558,20.644L116.283,20.21C114.976,19.972 114.003,19.532 113.363,18.89C112.724,18.243 112.407,17.42 112.413,16.42C112.407,15.546 112.639,14.799 113.109,14.181C113.578,13.556 114.246,13.079 115.112,12.75C115.978,12.421 116.999,12.256 118.176,12.256C119.941,12.256 121.333,12.628 122.352,13.372C123.37,14.11 123.933,15.126 124.041,16.42Z" style="fill:white;fill-rule:nonzero;"/>
        <path d="M132.486,25.754C131.111,25.754 129.931,25.47 128.947,24.903C127.968,24.335 127.215,23.546 126.689,22.535C126.163,21.519 125.9,20.344 125.9,19.009C125.9,17.669 126.163,16.494 126.689,15.484C127.221,14.467 127.976,13.675 128.955,13.108C129.94,12.54 131.114,12.256 132.478,12.256C133.683,12.256 134.733,12.475 135.627,12.912C136.526,13.349 137.228,13.968 137.732,14.768C138.241,15.563 138.51,16.497 138.538,17.57L134.659,17.57C134.58,16.9 134.354,16.375 133.98,15.995C133.612,15.614 133.131,15.424 132.537,15.424C132.056,15.424 131.635,15.56 131.273,15.833C130.91,16.1 130.627,16.497 130.424,17.025C130.226,17.547 130.127,18.195 130.127,18.967C130.127,19.739 130.226,20.392 130.424,20.926C130.627,21.454 130.91,21.854 131.273,22.126C131.635,22.393 132.056,22.527 132.537,22.527C132.922,22.527 133.261,22.444 133.556,22.28C133.856,22.115 134.102,21.874 134.294,21.556C134.487,21.232 134.608,20.84 134.659,20.38L138.538,20.38C138.498,21.459 138.23,22.402 137.732,23.208C137.239,24.014 136.546,24.641 135.652,25.09C134.764,25.533 133.708,25.754 132.486,25.754Z" style="fill:white;fill-rule:nonzero;"/>
        <path d="M144.819,18.047L144.819,25.507L140.668,25.507L140.668,8.066L144.683,8.066L144.683,14.828L144.827,14.828C145.122,14.022 145.603,13.391 146.27,12.937C146.944,12.483 147.767,12.256 148.74,12.256C149.657,12.256 150.455,12.46 151.134,12.869C151.813,13.272 152.339,13.843 152.713,14.581C153.092,15.319 153.278,16.182 153.273,17.17L153.273,25.507L149.122,25.507L149.122,17.987C149.128,17.261 148.947,16.693 148.579,16.284C148.211,15.875 147.693,15.671 147.026,15.671C146.59,15.671 146.205,15.767 145.871,15.961C145.543,16.148 145.286,16.418 145.099,16.77C144.918,17.122 144.825,17.547 144.819,18.047Z" style="fill:white;fill-rule:nonzero;"/>
    </g>
</svg>
