<?xml version="1.0" encoding="UTF-8" standalone="no"?>
<!DOCTYPE svg PUBLIC "-//W3C//DTD SVG 1.1//EN" "http://www.w3.org/Graphics/SVG/1.1/DTD/svg11.dtd">
<svg width="100%" height="100%" viewBox="0 0 413 213" version="1.1" xmlns="http://www.w3.org/2000/svg" xmlns:xlink="http://www.w3.org/1999/xlink" xml:space="preserve" xmlns:serif="http://www.serif.com/" style="fill-rule:evenodd;clip-rule:evenodd;stroke-linejoin:round;stroke-miterlimit:2;">
    <g transform="matrix(1,0,0,1,-229.252,-1518.25)">
        <g>
            <g transform="matrix(0.384615,0,0,0.333333,142.617,1012.17)">
                <ellipse cx="238.252" cy="1533.25" rx="13" ry="15" style="fill:rgb(245,245,241);fill-opacity:0.77;"/>
            </g>
            <g transform="matrix(0.384615,0,0,0.333333,332.382,1070.67)">
                <ellipse cx="238.252" cy="1533.25" rx="13" ry="15" style="fill:rgb(245,245,241);fill-opacity:0.77;"/>
            </g>
            <g transform="matrix(0.384615,0,0,0.333333,393.382,1214.67)">
                <ellipse cx="238.252" cy="1533.25" rx="13" ry="15" style="fill:rgb(245,245,241);fill-opacity:0.77;"/>
            </g>
            <g transform="matrix(0.384615,0,0,0.333333,544.882,1046.42)">
                <ellipse cx="238.252" cy="1533.25" rx="13" ry="15" style="fill:rgb(245,245,241);fill-opacity:0.77;"/>
            </g>
            <g transform="matrix(1,0,0,1,2.5,0)">
                <path d="M245.577,1528.18L406.577,1577.68C407.368,1577.93 408.208,1577.48 408.451,1576.69C408.695,1575.9 408.25,1575.06 407.458,1574.82L246.458,1525.32C245.667,1525.07 244.827,1525.52 244.584,1526.31C244.34,1527.1 244.785,1527.94 245.577,1528.18Z" style="fill:rgb(245,245,241);fill-opacity:0.47;"/>
            </g>
            <g transform="matrix(1,0,0,1,195,53.5)">
                <path d="M243.711,1529.74L429.711,1505.49C430.532,1505.38 431.112,1504.63 431.005,1503.81C430.898,1502.99 430.144,1502.41 429.324,1502.51L243.324,1526.76C242.503,1526.87 241.923,1527.62 242.03,1528.44C242.137,1529.27 242.89,1529.84 243.711,1529.74Z" style="fill:rgb(245,245,241);fill-opacity:0.47;"/>
            </g>
            <g transform="matrix(1,0,0,1,195,53.5)">
                <path d="M301.117,1664.27L437.617,1517.14C438.18,1516.54 438.145,1515.59 437.538,1515.03C436.931,1514.46 435.981,1514.5 435.418,1515.11L298.918,1662.23C298.355,1662.84 298.39,1663.79 298.997,1664.35C299.604,1664.91 300.554,1664.88 301.117,1664.27Z" style="fill:rgb(245,245,241);fill-opacity:0.47;"/>
            </g>
            <g transform="matrix(1,0,0,1,181,77.75)">
                <path d="M247.632,1516.83L297.632,1637.08C297.95,1637.84 298.829,1638.2 299.593,1637.88C300.358,1637.57 300.72,1636.69 300.403,1635.92L250.402,1515.67C250.085,1514.91 249.206,1514.55 248.442,1514.87C247.677,1515.18 247.315,1516.06 247.632,1516.83Z" style="fill:rgb(245,245,241);fill-opacity:0.47;"/>
            </g>
        </g>
    </g>
</svg>
