<?xml version="1.0" encoding="UTF-8" standalone="no"?>
<!DOCTYPE svg PUBLIC "-//W3C//DTD SVG 1.1//EN" "http://www.w3.org/Graphics/SVG/1.1/DTD/svg11.dtd">
<svg width="100%" height="100%" viewBox="0 0 255 257" version="1.1" xmlns="http://www.w3.org/2000/svg" xmlns:xlink="http://www.w3.org/1999/xlink" xml:space="preserve" xmlns:serif="http://www.serif.com/" style="fill-rule:evenodd;clip-rule:evenodd;stroke-linejoin:round;stroke-miterlimit:2;">
    <g transform="matrix(1,0,0,1,-918.017,-1484.25)">
        <g transform="matrix(1,0,0,1,499,10)">
            <g transform="matrix(0.384615,0,0,0.333333,534.882,968.167)">
                <ellipse cx="238.252" cy="1533.25" rx="13" ry="15" style="fill:rgb(245,245,241);fill-opacity:0.77;"/>
            </g>
            <g transform="matrix(0.384615,0,0,0.333333,332.382,1070.67)">
                <ellipse cx="238.252" cy="1533.25" rx="13" ry="15" style="fill:rgb(245,245,241);fill-opacity:0.77;"/>
            </g>
            <g transform="matrix(0.384615,0,0,0.333333,393.382,1214.67)">
                <ellipse cx="238.252" cy="1533.25" rx="13" ry="15" style="fill:rgb(245,245,241);fill-opacity:0.77;"/>
            </g>
            <g transform="matrix(0.384615,0,0,0.333333,544.882,1046.42)">
                <ellipse cx="238.252" cy="1533.25" rx="13" ry="15" style="fill:rgb(245,245,241);fill-opacity:0.77;"/>
            </g>
            <g transform="matrix(0.384615,0,0,0.333333,576.882,1136.42)">
                <ellipse cx="238.252" cy="1533.25" rx="13" ry="15" style="fill:rgb(245,245,241);fill-opacity:0.77;"/>
            </g>
            <g transform="matrix(1,0,0,1,375.5,-23.75)">
                <path d="M251.03,1514.78L258.03,1568.94C258.136,1569.76 258.889,1570.34 259.71,1570.24C260.531,1570.13 261.111,1569.38 261.005,1568.56L254.005,1514.39C253.899,1513.57 253.146,1512.99 252.325,1513.1C251.504,1513.2 250.924,1513.95 251.03,1514.78Z" style="fill:rgb(245,245,241);fill-opacity:0.47;"/>
            </g>
            <g transform="matrix(1,0,0,1,375.5,-23.75)">
                <path d="M265.344,1593.85L287.344,1660.22C287.604,1661.01 288.454,1661.43 289.239,1661.17C290.025,1660.91 290.452,1660.06 290.191,1659.28L268.191,1592.9C267.931,1592.12 267.081,1591.69 266.296,1591.95C265.51,1592.21 265.083,1593.06 265.344,1593.85Z" style="fill:rgb(245,245,241);fill-opacity:0.47;"/>
            </g>
            <g transform="matrix(1,0,0,1,195,53.5)">
                <path d="M243.711,1529.74L429.711,1505.49C430.532,1505.38 431.112,1504.63 431.005,1503.81C430.898,1502.99 430.144,1502.41 429.324,1502.51L243.324,1526.76C242.503,1526.87 241.923,1527.62 242.03,1528.44C242.137,1529.27 242.89,1529.84 243.711,1529.74Z" style="fill:rgb(245,245,241);fill-opacity:0.47;"/>
            </g>
            <g transform="matrix(1,0,0,1,195,53.5)">
                <path d="M301.117,1664.27L437.617,1517.14C438.18,1516.54 438.145,1515.59 437.538,1515.03C436.931,1514.46 435.981,1514.5 435.418,1515.11L298.918,1662.23C298.355,1662.84 298.39,1663.79 298.997,1664.35C299.604,1664.91 300.554,1664.88 301.117,1664.27Z" style="fill:rgb(245,245,241);fill-opacity:0.47;"/>
            </g>
            <g transform="matrix(1,0,0,1,181,77.75)">
                <path d="M247.632,1516.83L297.632,1637.08C297.95,1637.84 298.829,1638.2 299.593,1637.88C300.358,1637.57 300.72,1636.69 300.403,1635.92L250.402,1515.67C250.085,1514.91 249.206,1514.55 248.442,1514.87C247.677,1515.18 247.315,1516.06 247.632,1516.83Z" style="fill:rgb(245,245,241);fill-opacity:0.47;"/>
            </g>
        </g>
    </g>
</svg>
