<?xml version="1.0" encoding="UTF-8" standalone="no"?>
<!DOCTYPE svg PUBLIC "-//W3C//DTD SVG 1.1//EN" "http://www.w3.org/Graphics/SVG/1.1/DTD/svg11.dtd">
<svg width="100%" height="100%" viewBox="0 0 266 10" version="1.1" xmlns="http://www.w3.org/2000/svg" xmlns:xlink="http://www.w3.org/1999/xlink" xml:space="preserve" xmlns:serif="http://www.serif.com/" style="fill-rule:evenodd;clip-rule:evenodd;stroke-linejoin:round;stroke-miterlimit:2;">
    <g transform="matrix(1,0,0,1,-539.843,-693)">
        <g transform="matrix(2.06349,0,0,1,-577.309,0)">
            <path d="M542.908,702.997C551.877,702.021 566.462,700.43 581.268,699.302C590.097,698.63 599.004,698.124 606.843,698.005C614.516,697.898 623.128,698.143 631.628,698.556C646.054,699.255 660.158,700.432 668.816,701.153C669.125,701.182 669.387,700.69 669.401,700.054C669.416,699.418 669.177,698.877 668.869,698.847C660.211,697.891 646.106,696.335 631.676,695.238C623.161,694.59 614.533,694.102 606.843,693.995C598.985,693.876 590.054,694.115 581.2,694.515C566.372,695.184 551.762,696.309 542.777,697.003C541.976,697.078 541.354,698.481 541.39,700.135C541.426,701.789 542.107,703.072 542.908,702.997Z" style="fill:#18caf9;"/>
        </g>
    </g>
</svg>
