<?xml version="1.0" encoding="UTF-8" standalone="no"?>
<!DOCTYPE svg PUBLIC "-//W3C//DTD SVG 1.1//EN" "http://www.w3.org/Graphics/SVG/1.1/DTD/svg11.dtd">
<svg width="100%" height="100%" viewBox="0 0 27 27" version="1.1" xmlns="http://www.w3.org/2000/svg" xmlns:xlink="http://www.w3.org/1999/xlink" xml:space="preserve" xmlns:serif="http://www.serif.com/" style="fill-rule:evenodd;clip-rule:evenodd;stroke-linecap:round;stroke-linejoin:round;stroke-miterlimit:1.5;">
    <g transform="matrix(1,0,0,1,-2.69278,-2.69278)">
        <g transform="matrix(0.707107,0.707107,-0.707107,0.707107,15.9609,-5.3514)">
            <g transform="matrix(-1,5.72459e-17,-1.78677e-16,1.16352,31.1254,-2.7646)">
                <path d="M16,30.287C17.302,27.607 18.843,23.262 19.905,22.248C20.664,21.523 22.019,25.187 22.374,24.2C23.063,22.286 24.039,16.218 24.039,10.763C24.039,5.307 18.68,2.723 16,2.723C13.32,2.723 7.961,5.307 7.961,10.763C7.961,16.218 8.937,22.286 9.626,24.2C9.981,25.187 11.336,21.523 12.095,22.248C13.157,23.262 14.698,27.607 16,30.287" style="fill:rgb(245,245,241);stroke:rgb(245,245,241);stroke-width:1.84px;"/>
            </g>
            <g transform="matrix(0.61912,-0.61912,0.554112,0.554112,-6.10261,3.31527)">
                <ellipse cx="13.502" cy="23.224" rx="5.14" ry="5.742" style="fill:rgb(16,12,10);"/>
            </g>
        </g>
    </g>
</svg>
