<?xml version="1.0" encoding="UTF-8" standalone="no"?>
<!DOCTYPE svg PUBLIC "-//W3C//DTD SVG 1.1//EN" "http://www.w3.org/Graphics/SVG/1.1/DTD/svg11.dtd">
<svg width="100%" height="100%" viewBox="0 0 32 32" version="1.1" xmlns="http://www.w3.org/2000/svg" xmlns:xlink="http://www.w3.org/1999/xlink" xml:space="preserve" xmlns:serif="http://www.serif.com/" style="fill-rule:evenodd;clip-rule:evenodd;stroke-linecap:round;stroke-linejoin:round;stroke-miterlimit:1.5;">
    <path d="M3.693,28.307C4.977,25.182 7.462,20.518 7.546,18.932C7.606,17.799 3.633,19.856 4.194,18.792C5.281,16.73 9.583,11.048 14.071,6.559C18.56,2.071 24.476,3.735 26.371,5.629C28.265,7.524 29.929,13.44 25.441,17.929C20.952,22.417 15.27,26.719 13.208,27.806C12.144,28.367 14.201,24.394 13.068,24.454C11.482,24.538 6.818,27.023 3.693,28.307ZM21.123,6.377C23.607,6.377 25.623,8.393 25.623,10.877C25.623,13.36 23.607,15.377 21.123,15.377C18.64,15.377 16.623,13.36 16.623,10.877C16.623,8.393 18.64,6.377 21.123,6.377Z" style="fill:rgb(246,245,241);stroke:rgb(246,245,241);stroke-width:1px;"/>
</svg>
